#!OML:ASF F:\VICON\USERDATA\INSTALL\rory3\rory3.ASF
:FULLY-SPECIFIED
:DEGREES
98
root 0.11639303511283172 17.584120160475823 45.75969774793563 -2.177937116739955 0.41657226457272123 1.5487832645800501
lfemur 10.983620357444575 -1.3876001522658732 -28.55845316558083
ltibia 15.145364929851773
lfoot -5.7317238880344785 -7.964876941810491
ltoes -4.415348516107111
rfemur -29.434422816189738 6.703621102728794 16.055157702939958
rtibia 17.958594449494647
rfoot -12.189644424240756 -15.58776159684335
rtoes -2.6909078226289465
lowerback nan -1.3545974667018832 -4.0235760988047975
upperback 0.4551043700674735 -2.591213000197352 1.2095281325911795
thorax -4.611410037747285 -1.263446884687144 4.187965127516883
lowerneck -16.035646939165613 -2.6426297561044825 -2.6027418378510028
upperneck 19.712553919961152 -3.0981514741866856 1.6595978218171452
head 9.57020540655381 -1.2419496891244821 0.6446186031770558
lclavicle -1.4310704354322708e-15 1.3865956683411492e-15
lhumerus -22.99752936824458 -3.2705230758362123 80.33761848580521
lradius 34.24745609915865
lwrist 9.062220508353327
lhand -28.73723580899689 22.943761124230974
lfingers nan
lthumb -1.7482830924348742 53.833085714690654
rclavicle -4.155217586600369e-15 -1.6141150692240872e-15
rhumerus -35.19195701246602 -18.632099451088347 -77.95617503284572
rradius 27.968770452535303
rwrist 7.416041418984975
rhand -19.024976825987054 nan
rfingers nan
rthumb 7.011764320984988 -7.343353789297874
99
root 0.018289595414921256 17.53581030844914 43.420438206791864 -2.3609889216131057 0.0740050781160495 0.9324787750131955
lfemur 12.282043055579788 -1.9384183982952612 -27.967204035427322
ltibia 17.969249755369365
lfoot -6.220750380245727 -4.380979673726108
ltoes -12.908987844123638
rfemur -29.951663947797712 4.494739606562798 18.4198031510882
rtibia 18.76030838005195
rfoot -11.222647165455697 -12.839782962966975
rtoes -2.9149511607299567
lowerback nan -1.4667988851601736 -3.861161694018247
upperback 0.2827524415610178 -2.848743125039851 1.3358119218440372
thorax -4.968349300807783 -1.4029114754361818 4.501735595678976
lowerneck -15.647186946963078 -2.5964824228862518 -2.71040593356909
upperneck 19.605665300909802 -2.7842542828768386 1.366472129746172
head 9.755875937588593 -1.2477820717922805 0.2267156125253498
lclavicle -9.611557271949936e-16 7.199834328775024e-16
lhumerus -21.985146614391134 -3.491998610914956 80.27290691364234
lradius 35.033885014436635
lwrist 8.751339739306736
lhand -29.291865718084733 21.207509216667432
lfingers nan
lthumb -2.3501046841695326 51.70596461962137
rclavicle -4.162667527121904e-15 -3.4861933907572853e-15
rhumerus -35.78899317609448 -20.52186217097206 -76.65441354162104
rradius 26.57375536532775
rwrist 9.95202340073163
rhand -19.034028257210988 nan
rfingers nan
rthumb 7.15632273334656 -6.602134278557571
100
root -0.014039213876189005 17.53705145101727 45.76856335144194 -2.3566035570081136 0.4037839577653062 0.8537238059235563
lfemur 12.35827926598757 -3.054557954810202 -27.36667085779631
ltibia 18.58616435727849
lfoot -6.186092802837317 -3.5747380318957016
ltoes -18.90469828344853
rfemur -30.535045050858443 3.754596840708821 19.78461841724851
rtibia 25.50610774240928
rfoot -8.811580741134179 -10.601686346657482
rtoes -6.320268408685846
lowerback nan -1.385716291048221 -4.050364965561496
upperback 0.42176411426641314 -2.9045277927995325 1.3744205954723425
thorax -4.490556696719363 -1.3478907836215854 4.869394680605353
lowerneck -15.719298214423667 -2.518215664654652 -2.726361823460115
upperneck 19.504523421593035 -2.8127280022711294 1.4580760374180142
head 9.430593296796893 -1.2214057282314026 0.2928102708050415
lclavicle -8.066534767557559e-16 3.2816416184477216e-16
lhumerus -21.330957825158617 -3.3710034682534205 80.4568809859371
lradius 34.948046658118244
lwrist 8.118609379327271
lhand -29.909487073742934 20.72017678401777
lfingers nan
lthumb -2.320737521001028 52.15366653922628
rclavicle -3.4000435999091115e-15 -2.466991463424514e-15
rhumerus -36.69369701200594 -22.880909196910316 -74.59158930096886
rradius 24.87842856322183
rwrist 12.57582011299403
rhand -18.779265602945994 nan
rfingers nan
rthumb 7.438262835882014 -6.247183795386235
101
root -0.11218151135917198 17.529827528768838 43.10328418107917 -2.7681225810501457 0.022438360306632932 -0.19510051656753746
lfemur 13.35317290119464 -6.052432531292453 -26.137716088033045
ltibia 23.643936301095916
lfoot -4.45664432859701 -4.281462635837156
ltoes -19.52335283448061
rfemur -30.075807135548626 4.552788313633062 20.919469541253907
rtibia 30.52030878905424
rfoot -5.863796745246225 -8.83760893151365
rtoes -5.512772408184017
lowerback nan -1.4273130404076613 -3.14302015759302
upperback 0.3470857511751787 -2.7373798918403116 1.7820188457525608
thorax -4.449089366335769 -1.244190643891699 4.937687446682242
lowerneck -15.842704269139327 -2.5134041344444302 -2.766760052488558
upperneck 19.719532914869827 -2.4600004798634396 1.1835368266882602
head 9.643965965440406 -1.2250085532326016 -0.05171219492410315
lclavicle -4.596547320736777e-16 -2.9745006275176577e-16
lhumerus -21.580377100609155 -2.562980542098447 80.95547382401497
lradius 34.739879079957724
lwrist 7.4629731515999085
lhand -30.46865234902605 20.4715196835137
lfingers nan
lthumb -3.890470614081778 49.81215186027957
rclavicle -3.631037767994965e-15 -1.9333371724608813e-15
rhumerus -36.69511990249557 -24.992711444441134 -72.67990499001996
rradius 22.474938012170345
rwrist 15.913034628934096
rhand -18.737417919686422 nan
rfingers nan
rthumb 7.6608416767559095 -6.694284577932448
